<svg width="16" height="17" viewBox="0 0 16 17" fill="none" xmlns="http://www.w3.org/2000/svg">
<path d="M7.6329 5.81438e-09C8.30759 -4.53024e-05 8.95672 0.264707 9.44713 0.739946C9.93754 1.21518 10.232 1.86488 10.2702 2.55576L10.2743 2.70914H14.5412C14.6956 2.70918 14.8443 2.76936 14.9572 2.8775C15.07 2.98563 15.1386 3.13368 15.1492 3.29171C15.1597 3.44974 15.1113 3.60598 15.0139 3.72885C14.9164 3.85173 14.7771 3.93208 14.6241 3.95367L14.5412 3.95951H13.8943L12.8539 14.8127C12.8018 15.3538 12.5639 15.8583 12.1826 16.236C11.8013 16.6138 11.3016 16.8403 10.7725 16.875L10.6295 16.88H4.63633C4.10598 16.88 3.59292 16.6865 3.18884 16.3342C2.78476 15.982 2.51598 15.4938 2.43055 14.9569L2.41186 14.8119L1.37074 3.95951H0.724607C0.577308 3.9595 0.434993 3.90479 0.323982 3.80549C0.212971 3.70619 0.140773 3.56902 0.12074 3.41935L0.115051 3.33432C0.115057 3.18324 0.168402 3.03728 0.265219 2.92342C0.362036 2.80957 0.495777 2.73552 0.641707 2.71497L0.724607 2.70914H4.9915C4.9915 1.99063 5.26979 1.30155 5.76515 0.793487C6.26051 0.285426 6.93236 5.81438e-09 7.6329 5.81438e-09ZM12.6695 3.95951H2.59554L3.62528 14.6894C3.64808 14.9288 3.75095 15.1527 3.91642 15.3232C4.0819 15.4937 4.29978 15.6002 4.53311 15.6246L4.63633 15.6296H10.6295C11.1171 15.6296 11.5308 15.2754 11.6251 14.7944L11.6413 14.6894L12.6686 3.95951H12.6695ZM9.0552 6.25185C9.2025 6.25186 9.34481 6.30657 9.45582 6.40587C9.56684 6.50517 9.63903 6.64234 9.65907 6.79201L9.66475 6.87704V12.7121C9.66471 12.8705 9.60604 13.023 9.5006 13.1387C9.39517 13.2545 9.25083 13.3248 9.09675 13.3356C8.94267 13.3464 8.79033 13.2968 8.67053 13.1969C8.55073 13.0969 8.47238 12.954 8.45133 12.7971L8.44564 12.7121V6.87704C8.44564 6.71123 8.50986 6.55221 8.62418 6.43496C8.73849 6.31772 8.89354 6.25185 9.0552 6.25185ZM6.21061 6.25185C6.35791 6.25186 6.50022 6.30657 6.61123 6.40587C6.72224 6.50517 6.79444 6.64234 6.81447 6.79201L6.82016 6.87704V12.7121C6.82012 12.8705 6.76145 13.023 6.65601 13.1387C6.55058 13.2545 6.40623 13.3248 6.25215 13.3356C6.09807 13.3464 5.94574 13.2968 5.82594 13.1969C5.70613 13.0969 5.62779 12.954 5.60674 12.7971L5.60105 12.7121V6.87704C5.60105 6.71123 5.66527 6.55221 5.77959 6.43496C5.8939 6.31772 6.04894 6.25185 6.21061 6.25185ZM7.6329 1.25037C7.27596 1.25038 6.93206 1.38805 6.66949 1.63605C6.40691 1.88405 6.24485 2.22424 6.21548 2.5891L6.21061 2.70914H9.0552C9.0552 2.32225 8.90535 1.9512 8.63862 1.67763C8.37189 1.40406 8.01012 1.25037 7.6329 1.25037Z" fill="#5A55D2"/>
</svg>
