<svg width="18" height="19" viewBox="0 0 18 19" fill="none" xmlns="http://www.w3.org/2000/svg">
<path d="M8.31274 1.20947H6.68774C2.62524 1.20947 1.00024 2.87614 1.00024 7.04281V12.0428C1.00024 16.2095 2.62524 17.8761 6.68774 17.8761H11.5627C15.6252 17.8761 17.2502 16.2095 17.2502 12.0428V10.3761" stroke="#5A55D2" stroke-linecap="round" stroke-linejoin="round"/>
<path d="M12.4078 2.05936L6.00533 8.62602C5.76158 8.87602 5.51783 9.36769 5.46908 9.72602L5.1197 12.2344C4.9897 13.1427 5.61533 13.776 6.50095 13.651L8.94658 13.2927C9.28783 13.2427 9.7672 12.9927 10.0191 12.7427L16.4216 6.17602C17.5266 5.04269 18.0466 3.72602 16.4216 2.05936C14.7966 0.392691 13.5128 0.926024 12.4078 2.05936Z" stroke="#5A55D2" stroke-miterlimit="10" stroke-linecap="round" stroke-linejoin="round"/>
<path d="M11.4896 3.00098C12.034 4.99264 13.5534 6.55098 15.5034 7.11764" stroke="#5A55D2" stroke-miterlimit="10" stroke-linecap="round" stroke-linejoin="round"/>
</svg>
