<svg width="24" height="24" viewBox="0 0 24 24" fill="none" xmlns="http://www.w3.org/2000/svg">
<path fill-rule="evenodd" clip-rule="evenodd" d="M20 18C20 18.551 19.551 19 19 19L17 19V9H19C19.551 9 20 9.449 20 10L20 18ZM4 18V10C4 9.449 4.449 9 5 9H7L7 19H5C4.449 19 4 18.551 4 18ZM10 5.5C10 5.224 10.224 5 10.5 5H13.5C13.776 5 14 5.224 14 5.5V7H10V5.5ZM9 19H15V9L9 9L9 19ZM19 7L16 7V5.5C16 4.122 14.878 3 13.5 3L10.5 3C9.122 3 8 4.122 8 5.5V7L5 7C3.346 7 2 8.346 2 10L2 18C2 19.654 3.346 21 5 21L19 21C20.654 21 22 19.654 22 18L22 10C22 8.346 20.654 7 19 7Z" fill="#333333"/>
</svg>
