<svg width="24" height="24" viewBox="0 0 24 24" fill="none" xmlns="http://www.w3.org/2000/svg">
<path fill-rule="evenodd" clip-rule="evenodd" d="M11.9998 2.99991C14.5808 2.99991 16.8548 4.66091 17.6748 7.04491C20.1138 7.37591 21.9998 9.47191 21.9998 11.9999C21.9998 13.2209 21.5558 14.3959 20.7498 15.3089C20.5518 15.5319 20.2768 15.6469 19.9998 15.6469C19.7648 15.6469 19.5288 15.5649 19.3378 15.3969C18.9248 15.0299 18.8848 14.3989 19.2508 13.9839C19.7338 13.4379 19.9998 12.7319 19.9998 11.9999C19.9998 10.3459 18.6538 8.99991 16.9998 8.99991H16.8998C16.4238 8.99991 16.0138 8.66391 15.9198 8.19691C15.5458 6.34491 13.8978 4.99991 11.9998 4.99991C10.1028 4.99991 8.45382 6.34491 8.08082 8.19691C7.98682 8.66391 7.57582 8.99991 7.09982 8.99991H6.99982C5.34582 8.99991 3.99982 10.3459 3.99982 11.9999C3.99982 12.7319 4.26582 13.4379 4.74982 13.9839C5.11482 14.3989 5.07582 15.0299 4.66182 15.3969C4.24782 15.7629 3.61582 15.7219 3.25082 15.3089C2.44382 14.3959 1.99982 13.2209 1.99982 11.9999C1.99982 9.47191 3.88582 7.37591 6.32482 7.04491C7.14582 4.66091 9.41982 2.99991 11.9998 2.99991ZM11.305 11.28C11.699 10.904 12.322 10.907 12.707 11.293L15.707 14.293C16.098 14.684 16.098 15.316 15.707 15.707C15.512 15.902 15.256 16 15 16C14.744 16 14.488 15.902 14.293 15.707L13 14.414L13 20C13 20.553 12.552 21 12 21C11.448 21 11 20.553 11 20L11 14.356L9.69502 15.616C9.29802 16.001 8.66502 15.988 8.28102 15.591C7.89702 15.193 7.90802 14.561 8.30502 14.177L11.305 11.28Z" fill="#333333"/>
</svg>
