<svg width="16" height="16" viewBox="0 0 16 16" fill="none" xmlns="http://www.w3.org/2000/svg">
<path d="M15.6597 8.06429L12.3077 6.38921V2.46121C12.3077 2.34696 12.2758 2.23498 12.2157 2.13781C12.1556 2.04064 12.0696 1.96213 11.9674 1.91106L8.27511 0.0649021C8.18969 0.0222199 8.09552 0 8.00003 0C7.90454 0 7.81037 0.0222199 7.72495 0.0649021L4.03265 1.91106C3.93044 1.96213 3.84447 2.04064 3.78437 2.13781C3.72427 2.23498 3.6924 2.34696 3.69234 2.46121V6.38859L0.340338 8.06429C0.238041 8.1154 0.152011 8.19402 0.091901 8.2913C0.0317905 8.38859 -2.27051e-05 8.5007 3.05844e-05 8.61506V12.9227C9.1599e-05 13.037 0.0319587 13.149 0.0920628 13.2461C0.152167 13.3433 0.238135 13.4218 0.340338 13.4729L4.03265 15.3191C4.11807 15.3617 4.21224 15.3839 4.30772 15.3839C4.4032 15.3839 4.49737 15.3617 4.5828 15.3191L8.00003 13.6114L11.4173 15.3203C11.5027 15.3629 11.5969 15.3851 11.6923 15.3851C11.7878 15.3851 11.882 15.3629 11.9674 15.3203L15.6597 13.4741C15.7621 13.423 15.8482 13.3443 15.9083 13.2469C15.9684 13.1495 16.0002 13.0372 16 12.9227V8.61506C16.0001 8.5007 15.9683 8.38859 15.9082 8.2913C15.848 8.19402 15.762 8.1154 15.6597 8.06429ZM11.077 6.38921L8.61541 7.61998V4.68829L11.077 3.45752V6.38921ZM8.00003 1.30367L10.3163 2.46121L8.00003 3.61936L5.68372 2.46121L8.00003 1.30367ZM4.92311 3.45752L7.38465 4.68829V7.61998L4.92311 6.38921V3.45752ZM3.69234 13.7732L1.2308 12.5424V9.61075L3.69234 10.8415V13.7732ZM4.30772 9.77321L1.99142 8.61506L4.30772 7.4569L6.62403 8.61506L4.30772 9.77321ZM4.92311 10.8415L7.38465 9.61075V12.5424L4.92311 13.7732V10.8415ZM11.077 13.7732L8.61541 12.5424V9.61075L11.077 10.8415V13.7732ZM11.6923 9.77321L9.37603 8.61506L11.6923 7.4569L14.0086 8.61506L11.6923 9.77321ZM14.7693 12.5424L12.3077 13.7732V10.8415L14.7693 9.61075V12.5424Z" fill="#5A55D2"/>
</svg>
